<svg width="113" height="36" viewBox="0 0 113 36" fill="none" xmlns="http://www.w3.org/2000/svg">
<path d="M35.0859 29.3294C33.1536 29.3294 31.5945 28.6816 30.4087 27.386C29.223 26.0685 28.6301 24.235 28.6301 21.8854V12.6957C28.6301 12.4541 28.7069 12.2565 28.8607 12.1028C29.0144 11.9491 29.212 11.8722 29.4535 11.8722H33.5708C33.8123 11.8722 34.01 11.9491 34.1637 12.1028C34.3394 12.2565 34.4272 12.4541 34.4272 12.6957V21.6877C34.4272 23.8397 35.3824 24.9157 37.2928 24.9157C38.2151 24.9157 38.9397 24.6302 39.4667 24.0593C39.9937 23.4884 40.2572 22.6978 40.2572 21.6877V12.6957C40.2572 12.4541 40.3341 12.2565 40.4878 12.1028C40.6635 11.9491 40.8611 11.8722 41.0807 11.8722H45.1979C45.4395 11.8722 45.6371 11.9491 45.7908 12.1028C45.9445 12.2565 46.0214 12.4541 46.0214 12.6957V28.1765C46.0214 28.3961 45.9445 28.5938 45.7908 28.7694C45.6371 28.9231 45.4395 29 45.1979 29H41.3771C41.1575 29 40.9599 28.9231 40.7842 28.7694C40.6305 28.5938 40.5537 28.3961 40.5537 28.1765V26.9249C39.4118 28.5279 37.5892 29.3294 35.0859 29.3294ZM50.6862 9.40184C50.4447 9.40184 50.2471 9.32499 50.0934 9.17128C49.9396 9.01757 49.8628 8.81994 49.8628 8.57839V5.61396C49.8628 5.37242 49.9396 5.17479 50.0934 5.02108C50.2471 4.86737 50.4447 4.79051 50.6862 4.79051H54.6388C54.8804 4.79051 55.078 4.86737 55.2317 5.02108C55.3854 5.17479 55.4623 5.37242 55.4623 5.61396V8.57839C55.4623 8.81994 55.3854 9.01757 55.2317 9.17128C55.078 9.32499 54.8804 9.40184 54.6388 9.40184H50.6862ZM50.7192 29C50.4776 29 50.28 28.9231 50.1263 28.7694C49.9726 28.6157 49.8957 28.4181 49.8957 28.1765V12.6957C49.8957 12.4541 49.9726 12.2565 50.1263 12.1028C50.28 11.9491 50.4776 11.8722 50.7192 11.8722H54.6059C54.8474 11.8722 55.045 11.9491 55.1988 12.1028C55.3525 12.2565 55.4293 12.4541 55.4293 12.6957V28.1765C55.4293 28.3961 55.3525 28.5938 55.1988 28.7694C55.045 28.9231 54.8474 29 54.6059 29H50.7192ZM67.2255 29.3294C64.5905 29.3294 62.5154 28.6157 61.0002 27.1884C59.4851 25.7611 58.6946 23.686 58.6287 20.9631V19.8103C58.7165 17.2191 59.518 15.1989 61.0332 13.7497C62.5703 12.2784 64.6234 11.5428 67.1926 11.5428C69.0591 11.5428 70.6291 11.9271 71.9027 12.6957C73.1983 13.4422 74.1645 14.4743 74.8013 15.7918C75.4601 17.1094 75.7894 18.6245 75.7894 20.3373V21.1278C75.7894 21.3474 75.7126 21.545 75.5589 21.7207C75.4052 21.8744 75.2075 21.9513 74.966 21.9513H64.4258V22.1818C64.4697 23.2139 64.7222 24.0483 65.1834 24.6851C65.6445 25.3219 66.3142 25.6403 67.1926 25.6403C67.7416 25.6403 68.1917 25.5305 68.5431 25.3109C68.8944 25.0694 69.2128 24.7839 69.4983 24.4545C69.6959 24.213 69.8496 24.0703 69.9594 24.0264C70.0911 23.9605 70.2888 23.9275 70.5523 23.9275H74.6366C74.8342 23.9275 74.9989 23.9934 75.1307 24.1252C75.2844 24.235 75.3612 24.3887 75.3612 24.5863C75.3612 25.1572 75.0319 25.816 74.3731 26.5626C73.7363 27.3092 72.803 27.957 71.5734 28.5059C70.3437 29.0549 68.8944 29.3294 67.2255 29.3294ZM69.9923 18.6904V18.6245C69.9923 17.5485 69.7398 16.7031 69.2348 16.0883C68.7517 15.4515 68.0709 15.1331 67.1926 15.1331C66.3362 15.1331 65.6555 15.4515 65.1504 16.0883C64.6673 16.7031 64.4258 17.5485 64.4258 18.6245V18.6904H69.9923ZM87.5746 29C83.0291 29 80.7564 26.8371 80.7564 22.5112V16.1871H78.1872C77.9457 16.1871 77.7371 16.1102 77.5614 15.9565C77.4077 15.8028 77.3308 15.6052 77.3308 15.3636V12.6957C77.3308 12.4541 77.4077 12.2565 77.5614 12.1028C77.7371 11.9491 77.9457 11.8722 78.1872 11.8722H80.7564V6.43742C80.7564 6.19587 80.8332 5.99824 80.987 5.84453C81.1626 5.69082 81.3603 5.61396 81.5798 5.61396H85.4007C85.6422 5.61396 85.8398 5.69082 85.9935 5.84453C86.1473 5.99824 86.2241 6.19587 86.2241 6.43742V11.8722H90.3414C90.5829 11.8722 90.7805 11.9491 90.9343 12.1028C91.1099 12.2565 91.1978 12.4541 91.1978 12.6957V15.3636C91.1978 15.6052 91.1099 15.8028 90.9343 15.9565C90.7805 16.1102 90.5829 16.1871 90.3414 16.1871H86.2241V22.0501C86.2241 23.675 86.8499 24.4875 88.1016 24.4875H90.6378C90.8794 24.4875 91.077 24.5643 91.2307 24.718C91.3844 24.8718 91.4613 25.0694 91.4613 25.3109V28.1765C91.4613 28.3961 91.3844 28.5938 91.2307 28.7694C91.077 28.9231 90.8794 29 90.6378 29H87.5746ZM97.3834 35.2582C97.1858 35.2582 97.0211 35.1924 96.8894 35.0606C96.7576 34.9289 96.6917 34.7642 96.6917 34.5665C96.6917 34.4128 96.7247 34.2701 96.7905 34.1383L99.3597 27.946L93.0356 12.9921C92.9697 12.8164 92.9368 12.6847 92.9368 12.5968C92.9807 12.3992 93.0685 12.2345 93.2003 12.1028C93.332 11.9491 93.4967 11.8722 93.6944 11.8722H97.4493C97.9104 11.8722 98.2288 12.1028 98.4045 12.5639L102.159 22.1489L106.013 12.5639C106.233 12.1028 106.562 11.8722 107.001 11.8722H110.69C110.888 11.8722 111.053 11.9491 111.184 12.1028C111.338 12.2345 111.415 12.3882 111.415 12.5639C111.415 12.6517 111.382 12.7945 111.316 12.9921L101.995 34.5665C101.819 35.0277 101.49 35.2582 101.007 35.2582H97.3834Z" fill="#F8F8F8"/>
<path d="M24.9626 28.6588L24.9492 25.2019L21.4844 25.2153L21.4978 28.6722L24.9626 28.6588Z" fill="#FFBE3D"/>
<path d="M18.0329 25.2285L21.4844 25.2151L21.471 21.7448L18.0195 21.7582L18.0329 25.2285Z" fill="#FFBE3D"/>
<path d="M21.4709 21.7448L24.9357 21.7314L24.9223 18.2745L21.4575 18.2879L21.4709 21.7448Z" fill="#FFBE3D"/>
<path d="M14.5817 28.699L18.0466 28.6856L18.0332 25.2286L14.5684 25.242L14.5817 28.699Z" fill="#FFBE3D"/>
<path d="M12.5083 28.7124C13.0701 28.7124 13.6186 28.6722 14.1537 28.5918L14.1403 24.7999L17.5918 24.7865L17.5784 21.3162L21.0432 21.3028L21.0299 17.8324L24.8158 17.819C24.8826 17.2831 24.9228 16.7337 24.9228 16.171C24.896 9.28388 19.2908 3.7233 12.4146 3.7501C5.52509 3.79029 -0.0266591 9.40447 9.63011e-05 16.2915C0.0268517 23.1786 5.63211 28.7392 12.5083 28.7124ZM17.6185 14.4827L20.9897 14.4693L20.9763 12.3656L23.0766 12.3522L23.09 14.4559L20.9897 14.4693L21.0031 17.8458L17.6319 17.8592L17.6185 14.4827ZM9.09694 8.37275C13.4447 8.35935 16.9764 11.8699 17.0032 16.2246C17.0165 20.5792 13.5116 24.1166 9.16383 24.1433C4.81607 24.1567 1.28436 20.6462 1.2576 16.2915C1.24422 11.9369 4.74918 8.38615 9.09694 8.37275Z" fill="#F8F8F8"/>
</svg>
